<mxfile host="65bd71144e">
    <diagram id="Ylhac8xL4bxSJy2Zfckh" name="メイン画面">
        <mxGraphModel dx="1118" dy="755" grid="1" gridSize="10" guides="1" tooltips="1" connect="1" arrows="1" fold="1" page="1" pageScale="1" pageWidth="827" pageHeight="1169" math="0" shadow="0">
            <root>
                <mxCell id="0"/>
                <mxCell id="1" parent="0"/>
                <mxCell id="12" value="" style="verticalLabelPosition=bottom;shadow=0;dashed=0;align=center;html=1;verticalAlign=top;strokeWidth=1;shape=mxgraph.mockup.misc.map;" vertex="1" parent="1">
                    <mxGeometry x="170" y="238" width="510" height="500" as="geometry"/>
                </mxCell>
                <mxCell id="14" value="" style="verticalLabelPosition=top;shadow=0;dashed=0;align=center;html=1;verticalAlign=bottom;strokeWidth=1;shape=mxgraph.mockup.misc.pin;fillColor2=#dd0000;fillColor3=#440000;strokeColor=#660000;" vertex="1" parent="1">
                    <mxGeometry x="330" y="448" width="10" height="25" as="geometry"/>
                </mxCell>
                <mxCell id="15" value="" style="verticalLabelPosition=top;html=1;shadow=0;dashed=0;verticalAlign=bottom;strokeWidth=1;shape=mxgraph.ios.iPin;fillColor2=#dd0000;fillColor3=#440000;strokeColor=#660000;" vertex="1" parent="1">
                    <mxGeometry x="470" y="330" width="10" height="25" as="geometry"/>
                </mxCell>
                <mxCell id="16" value="" style="verticalLabelPosition=top;html=1;shadow=0;dashed=0;verticalAlign=bottom;strokeWidth=1;shape=mxgraph.ios.iPin;fillColor2=#dd0000;fillColor3=#440000;strokeColor=#660000;" vertex="1" parent="1">
                    <mxGeometry x="530" y="585" width="10" height="25" as="geometry"/>
                </mxCell>
                <mxCell id="17" value="" style="dashed=0;aspect=fixed;verticalLabelPosition=bottom;verticalAlign=top;align=center;shape=mxgraph.gmdl.star;strokeColor=none;fillColor=#737373;shadow=0;sketch=0;" vertex="1" parent="1">
                    <mxGeometry x="325" y="420" width="20" height="20" as="geometry"/>
                </mxCell>
                <mxCell id="18" value="" style="dashed=0;aspect=fixed;verticalLabelPosition=bottom;verticalAlign=top;align=center;shape=mxgraph.gmdl.star;strokeColor=none;fillColor=#737373;shadow=0;sketch=0;" vertex="1" parent="1">
                    <mxGeometry x="465" y="300" width="20" height="20" as="geometry"/>
                </mxCell>
                <mxCell id="19" value="" style="dashed=0;aspect=fixed;verticalLabelPosition=bottom;verticalAlign=top;align=center;shape=mxgraph.gmdl.star;strokeColor=none;fillColor=#737373;shadow=0;sketch=0;" vertex="1" parent="1">
                    <mxGeometry x="485" y="300" width="20" height="20" as="geometry"/>
                </mxCell>
                <mxCell id="20" value="" style="dashed=0;aspect=fixed;verticalLabelPosition=bottom;verticalAlign=top;align=center;shape=mxgraph.gmdl.star;strokeColor=none;fillColor=#737373;shadow=0;sketch=0;" vertex="1" parent="1">
                    <mxGeometry x="445" y="300" width="20" height="20" as="geometry"/>
                </mxCell>
                <mxCell id="21" value="" style="dashed=0;aspect=fixed;verticalLabelPosition=bottom;verticalAlign=top;align=center;shape=mxgraph.gmdl.star;strokeColor=none;fillColor=#737373;shadow=0;sketch=0;" vertex="1" parent="1">
                    <mxGeometry x="525" y="550" width="20" height="20" as="geometry"/>
                </mxCell>
                <mxCell id="27" value="" style="strokeWidth=1;shadow=0;dashed=0;align=center;html=1;shape=mxgraph.mockup.forms.rrect;rSize=0;strokeColor=#999999;fontColor=#000000;" vertex="1" parent="1">
                    <mxGeometry x="179" y="70" width="470" height="30" as="geometry"/>
                </mxCell>
                <mxCell id="28" value="投稿" style="strokeColor=inherit;fillColor=inherit;gradientColor=inherit;strokeWidth=1;shadow=0;dashed=0;align=center;html=1;shape=mxgraph.mockup.forms.rrect;rSize=0;fontSize=17;fontColor=#666666;" vertex="1" parent="27">
                    <mxGeometry width="78.02" height="30" as="geometry"/>
                </mxCell>
                <mxCell id="29" value="おすすめ" style="strokeColor=inherit;fillColor=inherit;gradientColor=inherit;strokeWidth=1;shadow=0;dashed=0;align=center;html=1;shape=mxgraph.mockup.forms.rrect;rSize=0;fontSize=17;fontColor=#666666;" vertex="1" parent="27">
                    <mxGeometry x="78.02" width="78.02" height="30" as="geometry"/>
                </mxCell>
                <mxCell id="30" value="設定" style="strokeColor=inherit;fillColor=inherit;gradientColor=inherit;strokeWidth=1;shadow=0;dashed=0;align=center;html=1;shape=mxgraph.mockup.forms.rrect;rSize=0;fontSize=17;fontColor=#666666;" vertex="1" parent="27">
                    <mxGeometry x="156.04" width="78.02" height="30" as="geometry"/>
                </mxCell>
                <mxCell id="31" value="ログアウト" style="strokeColor=inherit;fillColor=inherit;gradientColor=inherit;strokeWidth=1;shadow=0;dashed=0;align=center;html=1;shape=mxgraph.mockup.forms.rrect;rSize=0;fontSize=17;fontColor=#666666;" vertex="1" parent="27">
                    <mxGeometry x="234.05999999999997" width="132.54" height="30" as="geometry"/>
                </mxCell>
                <mxCell id="32" value="アカウント" style="strokeColor=inherit;fillColor=inherit;gradientColor=inherit;strokeWidth=1;shadow=0;dashed=0;align=center;html=1;shape=mxgraph.mockup.forms.rrect;rSize=0;fontSize=17;fontColor=#666666;" vertex="1" parent="27">
                    <mxGeometry x="366.59999999999997" width="103.39999999999999" height="30" as="geometry"/>
                </mxCell>
                <mxCell id="34" value="Snacy" style="ellipse;whiteSpace=wrap;html=1;aspect=fixed;fontColor=#FFFFFF;fontSize=20;" vertex="1" parent="1">
                    <mxGeometry x="40" y="30" width="110" height="110" as="geometry"/>
                </mxCell>
                <mxCell id="37" value="投稿" style="rounded=1;fillColor=#0057D8;strokeColor=none;html=1;fontColor=#ffffff;align=center;verticalAlign=middle;fontStyle=0;fontSize=12;sketch=0;" vertex="1" parent="1">
                    <mxGeometry x="680" y="68.5" width="86" height="33" as="geometry"/>
                </mxCell>
                <mxCell id="38" value="90件" style="text;html=1;strokeColor=none;fillColor=none;align=center;verticalAlign=middle;whiteSpace=wrap;rounded=0;fontSize=20;fontColor=#000000;" vertex="1" parent="1">
                    <mxGeometry x="265" y="440" width="60" height="30" as="geometry"/>
                </mxCell>
                <mxCell id="39" value="190件" style="text;html=1;strokeColor=none;fillColor=none;align=center;verticalAlign=middle;whiteSpace=wrap;rounded=0;fontSize=20;fontColor=#000000;" vertex="1" parent="1">
                    <mxGeometry x="380" y="295" width="60" height="30" as="geometry"/>
                </mxCell>
                <mxCell id="40" value="80件" style="text;html=1;strokeColor=none;fillColor=none;align=center;verticalAlign=middle;whiteSpace=wrap;rounded=0;fontSize=20;fontColor=#000000;" vertex="1" parent="1">
                    <mxGeometry x="465" y="550" width="60" height="30" as="geometry"/>
                </mxCell>
                <mxCell id="41" value="" style="shape=table;html=1;whiteSpace=wrap;startSize=0;container=1;collapsible=0;childLayout=tableLayout;fontSize=20;fontColor=#000000;" vertex="1" parent="1">
                    <mxGeometry x="54" y="810" width="720" height="203" as="geometry"/>
                </mxCell>
                <mxCell id="42" value="" style="shape=partialRectangle;html=1;whiteSpace=wrap;collapsible=0;dropTarget=0;pointerEvents=0;fillColor=none;top=0;left=0;bottom=0;right=0;points=[[0,0.5],[1,0.5]];portConstraint=eastwest;fontSize=20;fontColor=#000000;" vertex="1" parent="41">
                    <mxGeometry width="720" height="50" as="geometry"/>
                </mxCell>
                <mxCell id="43" value="店名" style="shape=partialRectangle;html=1;whiteSpace=wrap;connectable=0;fillColor=none;top=0;left=0;bottom=0;right=0;overflow=hidden;pointerEvents=1;fontSize=20;fontColor=#000000;" vertex="1" parent="42">
                    <mxGeometry width="130" height="50" as="geometry">
                        <mxRectangle width="130" height="50" as="alternateBounds"/>
                    </mxGeometry>
                </mxCell>
                <mxCell id="44" value="主なレビュー" style="shape=partialRectangle;html=1;whiteSpace=wrap;connectable=0;fillColor=none;top=0;left=0;bottom=0;right=0;overflow=hidden;pointerEvents=1;fontSize=20;fontColor=#000000;" vertex="1" parent="42">
                    <mxGeometry x="130" width="230" height="50" as="geometry">
                        <mxRectangle width="230" height="50" as="alternateBounds"/>
                    </mxGeometry>
                </mxCell>
                <mxCell id="45" value="評価" style="shape=partialRectangle;html=1;whiteSpace=wrap;connectable=0;fillColor=none;top=0;left=0;bottom=0;right=0;overflow=hidden;pointerEvents=1;fontSize=20;fontColor=#000000;" vertex="1" parent="42">
                    <mxGeometry x="360" width="180" height="50" as="geometry">
                        <mxRectangle width="180" height="50" as="alternateBounds"/>
                    </mxGeometry>
                </mxCell>
                <mxCell id="54" value="HP" style="shape=partialRectangle;html=1;whiteSpace=wrap;connectable=0;fillColor=none;top=0;left=0;bottom=0;right=0;overflow=hidden;pointerEvents=1;fontSize=20;fontColor=#000000;" vertex="1" parent="42">
                    <mxGeometry x="540" width="180" height="50" as="geometry">
                        <mxRectangle width="180" height="50" as="alternateBounds"/>
                    </mxGeometry>
                </mxCell>
                <mxCell id="46" value="" style="shape=partialRectangle;html=1;whiteSpace=wrap;collapsible=0;dropTarget=0;pointerEvents=0;fillColor=none;top=0;left=0;bottom=0;right=0;points=[[0,0.5],[1,0.5]];portConstraint=eastwest;fontSize=20;fontColor=#000000;" vertex="1" parent="41">
                    <mxGeometry y="50" width="720" height="76" as="geometry"/>
                </mxCell>
                <mxCell id="47" value="洋菓子" style="shape=partialRectangle;html=1;whiteSpace=wrap;connectable=0;fillColor=none;top=0;left=0;bottom=0;right=0;overflow=hidden;pointerEvents=1;fontSize=20;fontColor=#000000;" vertex="1" parent="46">
                    <mxGeometry width="130" height="76" as="geometry">
                        <mxRectangle width="130" height="76" as="alternateBounds"/>
                    </mxGeometry>
                </mxCell>
                <mxCell id="48" value="おいしかった！&lt;br&gt;意外と優しい味" style="shape=partialRectangle;html=1;whiteSpace=wrap;connectable=0;fillColor=none;top=0;left=0;bottom=0;right=0;overflow=hidden;pointerEvents=1;fontSize=20;fontColor=#000000;" vertex="1" parent="46">
                    <mxGeometry x="130" width="230" height="76" as="geometry">
                        <mxRectangle width="230" height="76" as="alternateBounds"/>
                    </mxGeometry>
                </mxCell>
                <mxCell id="49" value="4.2" style="shape=partialRectangle;html=1;whiteSpace=wrap;connectable=0;fillColor=none;top=0;left=0;bottom=0;right=0;overflow=hidden;pointerEvents=1;fontSize=20;fontColor=#000000;" vertex="1" parent="46">
                    <mxGeometry x="360" width="180" height="76" as="geometry">
                        <mxRectangle width="180" height="76" as="alternateBounds"/>
                    </mxGeometry>
                </mxCell>
                <mxCell id="55" value="https://..." style="shape=partialRectangle;html=1;whiteSpace=wrap;connectable=0;fillColor=none;top=0;left=0;bottom=0;right=0;overflow=hidden;pointerEvents=1;fontSize=20;fontColor=#000000;" vertex="1" parent="46">
                    <mxGeometry x="540" width="180" height="76" as="geometry">
                        <mxRectangle width="180" height="76" as="alternateBounds"/>
                    </mxGeometry>
                </mxCell>
                <mxCell id="50" value="" style="shape=partialRectangle;html=1;whiteSpace=wrap;collapsible=0;dropTarget=0;pointerEvents=0;fillColor=none;top=0;left=0;bottom=0;right=0;points=[[0,0.5],[1,0.5]];portConstraint=eastwest;fontSize=20;fontColor=#000000;" vertex="1" parent="41">
                    <mxGeometry y="126" width="720" height="77" as="geometry"/>
                </mxCell>
                <mxCell id="51" value="" style="shape=partialRectangle;html=1;whiteSpace=wrap;connectable=0;fillColor=none;top=0;left=0;bottom=0;right=0;overflow=hidden;pointerEvents=1;fontSize=20;fontColor=#000000;" vertex="1" parent="50">
                    <mxGeometry width="130" height="77" as="geometry">
                        <mxRectangle width="130" height="77" as="alternateBounds"/>
                    </mxGeometry>
                </mxCell>
                <mxCell id="52" value="" style="shape=partialRectangle;html=1;whiteSpace=wrap;connectable=0;fillColor=none;top=0;left=0;bottom=0;right=0;overflow=hidden;pointerEvents=1;fontSize=20;fontColor=#000000;" vertex="1" parent="50">
                    <mxGeometry x="130" width="230" height="77" as="geometry">
                        <mxRectangle width="230" height="77" as="alternateBounds"/>
                    </mxGeometry>
                </mxCell>
                <mxCell id="53" value="" style="shape=partialRectangle;html=1;whiteSpace=wrap;connectable=0;fillColor=none;top=0;left=0;bottom=0;right=0;overflow=hidden;pointerEvents=1;fontSize=20;fontColor=#000000;" vertex="1" parent="50">
                    <mxGeometry x="360" width="180" height="77" as="geometry">
                        <mxRectangle width="180" height="77" as="alternateBounds"/>
                    </mxGeometry>
                </mxCell>
                <mxCell id="56" style="shape=partialRectangle;html=1;whiteSpace=wrap;connectable=0;fillColor=none;top=0;left=0;bottom=0;right=0;overflow=hidden;pointerEvents=1;fontSize=20;fontColor=#000000;" vertex="1" parent="50">
                    <mxGeometry x="540" width="180" height="77" as="geometry">
                        <mxRectangle width="180" height="77" as="alternateBounds"/>
                    </mxGeometry>
                </mxCell>
                <mxCell id="57" value="あなたへの&lt;br&gt;おすすめ" style="shape=callout;whiteSpace=wrap;html=1;perimeter=calloutPerimeter;fontSize=20;fontColor=#000000;position2=0.31;" vertex="1" parent="1">
                    <mxGeometry x="505" y="440" width="175" height="120" as="geometry"/>
                </mxCell>
            </root>
        </mxGraphModel>
    </diagram>
</mxfile>